#!OML:ASF H:\Terrain\Patient Classification 1\Walking\liu\liu.ASF
:FULLY-SPECIFIED
:DEGREES
34
root 9.27939032516 16.0779756636 -20.4920129934 4.92371075017 5.6787229267 5.19935181941
lowerback -8.33127485105 -3.5991312581 -6.20951477006
upperback -1.14246539587 -4.31389781235 2.1637731659
thorax 4.10559336162 -2.25755126031 5.22807241233
lowerneck -19.1917897091 -5.30171604844 -13.7973442417
upperneck 21.2532948073 -6.1524043756 11.5352933478
head 10.8278709152 -2.61111019494 5.57933099517
rclavicle -4.80435930297e-14 -9.59380124886e-15
rhumerus -47.1122677864 7.6657250862 -83.2332682673
rradius 34.3892512182
rwrist -18.1239862016
rhand -29.3355616535 -22.9367205213
rfingers 7.12502
rthumb -2.67580187349 -52.899483267
lclavicle -4.80435930297e-14 -9.59380124886e-15
lhumerus -28.1309476707 -27.0687583609 95.4572597303
lradius 42.0406718126
lwrist 11.9856627443
lhand -11.6756967131 -24.2648141567
lfingers 7.12502
lthumb 14.3694464429 5.2178494641
rfemur -42.1086451553 12.6555292617 4.63630679372
rtibia 26.5713559118
rfoot -24.9466860545 -13.2945266879
rtoes -21.8136542335
lfemur 16.5192191086 0.742509111384 -28.2057496687
ltibia 9.49955964011e-08
lfoot -15.5665385453 0.669426746539
ltoes -4.03754035542
35
root 9.21374527416 16.0111789784 -19.9679216753 5.44450465117 6.46681233436 5.34922079535
lowerback -8.39205751256 -3.78069276439 -6.37129214723
upperback -1.17142482608 -4.53478310875 2.10218985952
thorax 4.14754607077 -2.36948625485 5.22086735733
lowerneck -19.4825836591 -5.39655226693 -13.279210372
upperneck 21.1019028347 -6.27438256168 11.0672654355
head 10.8100900254 -2.66729413025 5.28605519145
rclavicle -4.48576793421e-14 -1.51527463951e-14
rhumerus -47.1399905402 6.69762741203 -82.7794277708
rradius 33.6332823211
rwrist -17.9910736901
rhand -29.6094547957 -23.3339027273
rfingers 7.12502
rthumb -2.94027187234 -53.2934668481
lclavicle -4.48576793421e-14 -1.51527463951e-14
lhumerus -29.6095597402 -26.156021315 96.6348435204
lradius 40.5344285404
lwrist 10.4875744205
lhand -11.2060297011 -24.3035304681
lfingers 7.12502
lthumb 14.8219805005 5.1463259305
rfemur -42.4702973646 11.1091852987 5.03870922554
rtibia 26.138226992
rfoot -24.0861289192 -13.2358307806
rtoes -21.305394841
lfemur 17.9294468681 1.08250175008 -27.4822473901
ltibia 1.33701423775e-09
lfoot -15.3705938554 -0.176550589698
ltoes -6.27545244093
36
root 9.13690248109 15.9549468743 -19.3952746295 6.28192673317 6.96120505954 5.90489094243
lowerback -8.9411717963 -3.95590263957 -6.98437718588
upperback -1.19988135442 -4.66823088875 1.98859731337
thorax 4.48258151134 -2.45353407926 5.39615040069
lowerneck -19.4477821346 -5.45032661763 -13.4188282326
upperneck 20.6319044538 -6.37267073922 11.4508314878
head 10.6656469153 -2.67728841471 5.4240863472
rclavicle 3.2543580168e-14 3.03536974993e-15
rhumerus -47.3487031482 6.27204652816 -82.7497389102
rradius 32.9172540869
rwrist -19.3144307346
rhand -31.0786408483 -20.5639657839
rfingers 7.12502
rthumb -4.35903149165 -50.499124959
lclavicle 3.2543580168e-14 3.03536974993e-15
lhumerus -30.8412839282 -24.601723632 97.5995275143
lradius 38.0991942734
lwrist 9.04810147481
lhand -10.0887017641 -23.873935158
lfingers 7.12502
lthumb 15.8982137748 5.49314447308
rfemur -43.1211896479 9.86718307061 5.06096347504
rtibia 26.9861638216
rfoot -23.6594124937 -12.0066180186
rtoes -19.9201660095
lfemur 19.0922296441 1.58857504502 -27.0234480383
ltibia 2.57223118279e-13
lfoot -14.2915044548 -1.71495955508
ltoes -7.1447210646
37
root 9.0412207289 15.8943511606 -18.811375451 6.23847538524 8.32952217402 6.37692997881
lowerback -8.11026609998 -4.1946068031 -7.45797303398
upperback -1.23301124411 -4.99893705806 1.84073859707
thorax 4.05995782261 -2.61000598766 5.50962154615
lowerneck -19.7383052822 -5.63163864012 -13.4151407986
upperneck 20.6620343079 -6.55910265527 11.3182756712
head 10.7541302504 -2.76839779221 5.34234456324
rclavicle -4.99430913469e-14 3.67283844166e-15
rhumerus -47.6880284601 5.39291292933 -82.4171787716
rradius 31.6683423115
rwrist -18.9647119006
rhand -29.7848518575 -25.185664737
rfingers 7.12502
rthumb -3.10967667233 -55.1443940704
lclavicle -4.99430913469e-14 3.67283844166e-15
lhumerus -32.6005241811 -23.3078886356 98.8645859839
lradius 34.0915201991
lwrist 4.62909603264
lhand -13.5758432551 -24.4647204712
lfingers 7.12502
lthumb 12.5381140331 5.13960864662
rfemur -42.0514386151 7.8287866243 5.88154159865
rtibia 28.2367653167
rfoot -20.434249097 -9.76814982447
rtoes -19.9012651134
lfemur 21.2757062035 1.3100709959 -26.3294899781
ltibia 6.74401047137e-10
lfoot -12.8344686501 -2.18168942954
ltoes -9.90861173226
38
root 8.95023773427 15.8984812413 -18.1852134265 6.33461951414 9.09287143494 5.53733415968
lowerback -7.95255792408 -4.2064072969 -6.42731352438
upperback -1.0913827261 -5.12173145496 2.03564843902
thorax 4.0678621544 -2.66152508154 5.12374607409
lowerneck -19.9271678507 -5.80808884015 -13.4789953862
upperneck 19.6978279858 -6.71764479303 11.4568176593
head 10.4710513836 -2.81841063238 5.34767374019
rclavicle 2.35265410028e-14 2.40207141287e-14
rhumerus -48.2326158241 5.25912624646 -82.3470613217
rradius 31.4767965432
rwrist -18.4798933071
rhand -30.8939098902 -28.6509830019
rfingers 7.12502
rthumb -4.18074658351 -58.5929837491
lclavicle 2.35265410028e-14 2.40207141287e-14
lhumerus -33.1406486892 -19.9813962974 98.6771880951
lradius 30.3470856903
lwrist 2.68954235655
lhand -13.5962406272 -24.0396779731
lfingers 7.12502
lthumb 12.5184005826 5.56550486235
rfemur -41.9998816715 5.10602973703 8.9181655388
rtibia 30.6745008709
rfoot -11.3401818064 -10.3775794862
rtoes -19.9141583629
lfemur 23.2158838907 1.6143667834 -24.0833581155
ltibia 5.47802888622e-08
lfoot -10.3465429665 -3.26591572156
ltoes -11.1509612486
